<svg width="32" height="32" viewBox="0 0 32 32" fill="none" xmlns="http://www.w3.org/2000/svg">
<g clip-path="url(#clip0_4001_10468)">
<path d="M9.76675 20.2479C15.1608 20.2479 19.5335 15.8751 19.5335 10.4811C19.5335 5.08708 15.1608 0.714355 9.76675 0.714355C4.37272 0.714355 0 5.08708 0 10.4811C0 15.8751 4.37272 20.2479 9.76675 20.2479Z" fill="#4285F4"/>
<path d="M32.0005 11.4348C32.0005 12.5313 31.1115 13.42 30.0154 13.42C28.9193 13.42 28.0303 12.5313 28.0303 11.4348C28.0303 10.3384 28.9193 9.44971 30.0154 9.44971C31.1115 9.44971 32.0005 10.3384 32.0005 11.4348Z" fill="#34A853"/>
<path d="M28.4268 16.2784C28.4268 18.4709 26.6494 20.2485 24.4566 20.2485C22.2636 20.2485 20.4863 18.4709 20.4863 16.2784C20.4863 14.0857 22.2636 12.3081 24.4566 12.3081C26.6495 12.3081 28.4268 14.0857 28.4268 16.2784Z" fill="#EA4335"/>
<path d="M29.2209 26.521C29.2209 29.1523 27.0882 31.2851 24.4567 31.2851C21.8252 31.2851 19.6924 29.1523 19.6924 26.521C19.6924 23.8899 21.8251 21.7568 24.4567 21.7568C27.0882 21.7568 29.2209 23.8899 29.2209 26.521Z" fill="#FBBC05"/>
</g>
<defs>
<clipPath id="clip0_4001_10468">
<rect width="32" height="32" fill="white"/>
</clipPath>
</defs>
</svg>
