<svg width="92" height="30" viewBox="0 0 92 30" fill="none" xmlns="http://www.w3.org/2000/svg">
<g clip-path="url(#clip0_6001_1457)">
<path d="M8.5491 13.9002L8.28417 13.8645C5.90647 13.5478 3.85228 13.2742 3.85228 11.2405C3.85228 9.42757 5.52432 8.2093 8.01327 8.2093C10.297 8.2093 11.8826 9.26621 12.113 10.9192H15.5048C15.3137 7.46693 12.2486 5.07415 7.97306 5.07415C3.36771 5.07415 0.39156 7.62326 0.39156 11.5687C0.39156 16.1453 4.69477 16.7092 7.83737 17.121L7.94545 17.1354C10.4284 17.4631 12.573 17.7461 12.573 19.8218C12.573 21.6883 10.7833 22.894 8.01327 22.894C5.38113 22.894 3.66082 21.7982 3.46729 20.0196H0C0.231291 23.6237 3.42201 26.0298 8.01327 26.0298C12.8861 26.0298 16.0346 23.4481 16.0346 19.4524C16.0346 14.8814 11.7083 14.3143 8.5491 13.9002Z" fill="#4B7A9C"/>
<path d="M78.5124 15.3946L71.3239 5.82261H75.8212L81.2411 13.4248L86.6619 5.82261H91.0438L83.8168 15.3946L91.3516 25.2812H86.8533L81.1256 17.3244L75.3984 25.2812H71.0156L78.5124 15.3946Z" fill="#4B7A9C"/>
<path d="M48.7842 5.31247V5.31148C43.9129 5.31902 40.6152 8.07566 40.6152 13.8187V25.2812H44.2668V13.8187C44.2668 10.2431 46.0655 8.78453 48.7842 8.77738L49.9963 8.7832V5.31247H48.7842Z" fill="#4B7A9C"/>
<path d="M27.8057 22.4498C24.0876 22.4498 21.0733 19.3614 21.0733 15.5516C21.0733 11.7419 24.0876 8.65335 27.8057 8.65335C31.5238 8.65335 34.5379 11.7419 34.5379 15.5516C34.5379 19.3614 31.5238 22.4498 27.8057 22.4498ZM27.8057 5.07405C22.1581 5.07405 17.5801 9.76492 17.5801 15.5516C17.5801 21.3382 22.1581 26.0293 27.8057 26.0293C33.4533 26.0293 38.0313 21.3382 38.0313 15.5516C38.0313 9.76492 33.4533 5.07405 27.8057 5.07405Z" fill="#4B7A9C"/>
<path d="M61.0438 8.65355C64.0938 8.65355 66.6666 10.7327 67.4944 13.5824H54.5937C55.4215 10.7327 57.9943 8.65355 61.0438 8.65355ZM66.2737 19.8864C65.0394 21.4479 63.1578 22.45 61.0438 22.45C57.7851 22.45 55.0679 20.077 54.446 16.9258H61.3863H67.6421H71.1716C71.2294 16.475 71.2698 16.0185 71.2698 15.5517C71.2698 9.76512 66.6917 5.07404 61.0438 5.07404C55.3965 5.07404 50.8184 9.76512 50.8184 15.5517C50.8184 21.3384 55.3965 26.0293 61.0438 26.0293C65.1809 26.0293 68.7354 23.5073 70.3458 19.8864H66.2737Z" fill="#4B7A9C"/>
</g>
<defs>
<clipPath id="clip0_6001_1457">
<rect width="91.3505" height="20.9559" fill="white" transform="translate(0 5.07373)"/>
</clipPath>
</defs>
</svg>
