<svg width="356" height="2" viewBox="0 0 356 2" fill="none" xmlns="http://www.w3.org/2000/svg">
<path d="M355 2C355.552 2 356 1.55228 356 1C356 0.447715 355.552 0 355 0V2ZM0 2H2.01705V0H0V2ZM6.05114 2H10.0852V0H6.05114V2ZM14.1193 2H18.1534V0H14.1193V2ZM22.1875 2H26.2216V0H22.1875V2ZM30.2557 2H34.2898V0H30.2557V2ZM38.3239 2H42.358V0H38.3239V2ZM46.3921 2H50.4261V0H46.3921V2ZM54.4602 2H58.4943V0H54.4602V2ZM62.5284 2H66.5625V0H62.5284V2ZM70.5966 2H74.6307V0H70.5966V2ZM78.6648 2H82.6989V0H78.6648V2ZM86.7329 2H90.767V0H86.7329V2ZM94.8011 2H98.8352V0H94.8011V2ZM102.869 2H106.903V0H102.869V2ZM110.937 2H114.972V0H110.937V2ZM119.006 2H123.04V0H119.006V2ZM127.074 2H131.108V0H127.074V2ZM135.142 2H139.176V0H135.142V2ZM143.21 2H147.244V0H143.21V2ZM151.278 2H155.312V0H151.278V2ZM159.347 2H163.381V0H159.347V2ZM167.415 2H171.449V0H167.415V2ZM175.483 2H179.517V0H175.483V2ZM183.551 2H187.585V0H183.551V2ZM191.619 2H195.653V0H191.619V2ZM199.687 2H203.721V0H199.687V2ZM207.756 2H211.79V0H207.756V2ZM215.824 2H219.858V0H215.824V2ZM223.892 2H227.926V0H223.892V2ZM231.96 2H235.994V0H231.96V2ZM240.028 2H244.062V0H240.028V2ZM248.096 2H252.131V0H248.096V2ZM256.165 2H260.199V0H256.165V2ZM264.233 2H268.267V0H264.233V2ZM272.301 2H276.335V0H272.301V2ZM280.369 2H284.403V0H280.369V2ZM288.437 2H292.471V0H288.437V2ZM296.506 2H300.54V0H296.506V2ZM304.574 2H308.608V0H304.574V2ZM312.642 2H316.676V0H312.642V2ZM320.71 2H324.744V0H320.71V2ZM328.778 2H332.812V0H328.778V2ZM336.846 2H340.881V0H336.846V2ZM344.915 2H348.949V0H344.915V2ZM352.983 2H355V0H352.983V2Z" fill="#C6C6C8"/>
</svg>
