<svg width="110" height="36" viewBox="0 0 110 36" fill="none" xmlns="http://www.w3.org/2000/svg">
<g clip-path="url(#clip0_4001_1086)">
<path d="M10.2218 16.6798L9.90499 16.637C7.06208 16.257 4.60598 15.9287 4.60598 13.4882C4.60598 11.3127 6.60516 9.85077 9.58109 9.85077C12.3117 9.85077 14.2075 11.1191 14.4829 13.1026H18.5383C18.3098 8.95992 14.6451 6.08859 9.53301 6.08859C4.02661 6.08859 0.468169 9.14752 0.468169 13.8821C0.468169 19.3739 5.61331 20.0506 9.37077 20.5448L9.5 20.5621C12.4687 20.9553 15.0329 21.2949 15.0329 23.7858C15.0329 26.0256 12.8931 27.4725 9.58109 27.4725C6.43396 27.4725 4.37707 26.1575 4.14568 24.0231H0C0.276543 28.348 4.09154 31.2354 9.58109 31.2354C15.4073 31.2354 19.1718 28.1373 19.1718 23.3425C19.1718 17.8573 13.999 17.1767 10.2218 16.6798Z" fill="white"/>
<path d="M93.8727 18.473L85.2778 6.98655H90.655L97.1353 16.1092L103.617 6.98655H108.856L100.215 18.473L109.224 30.3369H103.846L96.9973 20.7887L90.1495 30.3369H84.9092L93.8727 18.473Z" fill="white"/>
<path d="M58.3287 6.37437V6.37319C52.5044 6.38224 48.5615 9.69021 48.5615 16.5818V30.3369H52.9276V16.5818C52.9276 12.2911 55.0782 10.5408 58.3287 10.5323L59.778 10.5392V6.37437H58.3287Z" fill="white"/>
<path d="M33.2468 26.9395C28.8012 26.9395 25.1972 23.2334 25.1972 18.6617C25.1972 14.09 28.8012 10.3837 33.2468 10.3837C37.6924 10.3837 41.2962 14.09 41.2962 18.6617C41.2962 23.2334 37.6924 26.9395 33.2468 26.9395ZM33.2468 6.08856C26.4943 6.08856 21.0205 11.7176 21.0205 18.6617C21.0205 25.6055 26.4943 31.2349 33.2468 31.2349C39.9993 31.2349 45.4731 25.6055 45.4731 18.6617C45.4731 11.7176 39.9993 6.08856 33.2468 6.08856Z" fill="white"/>
<path d="M72.9878 10.3837C76.6345 10.3837 79.7108 12.8787 80.7005 16.2983H65.2757C66.2654 12.8787 69.3417 10.3837 72.9878 10.3837ZM79.2409 23.8632C77.7652 25.737 75.5154 26.9395 72.9878 26.9395C69.0915 26.9395 65.8427 24.0919 65.0991 20.3105H73.3973H80.8771H85.0972C85.1662 19.7694 85.2145 19.2217 85.2145 18.6615C85.2145 11.7176 79.7407 6.08832 72.9878 6.08832C66.2355 6.08832 60.7617 11.7176 60.7617 18.6615C60.7617 25.6055 66.2355 31.2346 72.9878 31.2346C77.9343 31.2346 82.1843 28.2082 84.1097 23.8632H79.2409Z" fill="white"/>
</g>
<defs>
<clipPath id="clip0_4001_1086">
<rect width="109.223" height="25.1471" fill="white" transform="translate(0 6.08826)"/>
</clipPath>
</defs>
</svg>
